<svg fill="none" height="125" viewBox="0 0 94 125" width="94" xmlns="http://www.w3.org/2000/svg" xmlns:xlink="http://www.w3.org/1999/xlink"><linearGradient id="a" gradientUnits="userSpaceOnUse" x1="20.021" x2="73.6097" y1="12.2433" y2="65.8295"><stop offset="0" stop-color="#ffc100"/><stop offset="1" stop-color="#ffa300"/></linearGradient><clipPath id="b"><path d="m0 0h93.631v125h-93.631z"/></clipPath><g clip-path="url(#b)"><path d="m70.7856 64.5732-2.1003 5.5108c-.4434 1.1629-1.274 2.1375-2.3519 2.7596-1.078.6221-2.3374.8537-3.5661.6558l-5.8224-.9348c-.3763-.0611-.7614-.0418-1.1298.0568-.3683.0985-.7116.274-1.0072.5148l-4.5759 3.7221c-.9654.7857-2.172 1.2146-3.4167 1.2146-1.2446 0-2.4512-.4289-3.4166-1.2146l-4.5759-3.7221c-.2956-.2408-.6389-.4163-1.0073-.5148-.3683-.0986-.7534-.1179-1.1298-.0568l-5.8223.9348c-1.2287.1979-2.4881-.0337-3.5661-.6558-1.0779-.6221-1.9085-1.5967-2.3519-2.7596l-2.1003-5.5108c-.1354-.3567-.345-.6807-.6148-.9505-.2698-.2699-.5938-.4794-.9506-.6148l-5.5107-2.1027c-1.1626-.4433-2.1371-1.2734-2.7596-2.3508-.6224-1.0774-.8549-2.3362-.6582-3.5648l.9372-5.8248c.0608-.3766.041-.7617-.058-1.1301-.0989-.3684-.2748-.7116-.5161-1.007l-3.72209-4.5808c-.7846-.9654-1.21291-2.1714-1.21291-3.4154s.42831-2.45 1.21291-3.4154l3.72209-4.5759c.2413-.2954.4172-.6386.5161-1.007.099-.3683.1188-.7535.058-1.1301l-.9372-5.8199c-.1949-1.2274.0385-2.4846.6608-3.5604s1.5958-1.9047 2.757-2.3478l5.5107-2.11c.3573-.136.6816-.3463.9514-.617.2699-.2707.4792-.5957.614-.9533l2.1003-5.51078c.4434-1.1629 1.274-2.13747 2.3519-2.75956 1.078-.6221 2.3374-.8537 3.5661-.65582l5.8223.93482c.3764.06108.7615.04171 1.1298-.05683.3684-.09854.7117-.27401 1.0073-.51486l4.5759-3.7049c.9654-.785664 2.172-1.214624 3.4166-1.214624 1.2447 0 2.4513.42896 3.4167 1.214624l4.5759 3.72208c.2956.24084.6389.41632 1.0072.51486.3684.09853.7535.1179 1.1298.05682l5.8224-.93481c1.2287-.19789 2.4881.03372 3.5661.65581 1.0779.6221 1.9085 1.59667 2.3519 2.75957l2.1003 5.4936c.1354.3567.345.6807.6148.9505.2698.2699.5938.4794.9506.6148l5.5107 2.115c1.1629.4429 2.1377 1.273 2.7602 2.3504.6225 1.0775.8547 2.3365.6576 3.5652l-.9372 5.8248c-.0608.3766-.041.7617.0579 1.1301.099.3683.2749.7115.5162 1.007l3.7319 4.5685c.7864.9636 1.2159 2.1692 1.2159 3.413 0 1.2437-.4295 2.4493-1.2159 3.4129l-3.7221 4.5759c-.2413.2954-.4172.6386-.5161 1.007-.099.3684-.1188.7535-.058 1.1301l.9372 5.8248c.1972 1.2286-.0351 2.4877-.6576 3.5651-.6225 1.0775-1.5973 1.9076-2.7602 2.3504l-5.5107 2.1028c-.3591.1348-.6853.3445-.9569.6153s-.4824.5963-.6183.9549z" fill="url(#a)"/><path d="m61.9133 33.8079c1.4397 3.1768 1.7247 6.7567.8058 10.1213s-2.984 6.3026-5.8387 8.3066-6.3196 2.948-9.7962 2.6691c-3.4767-.2789-6.7468-1.7633-9.2454-4.1968-2.6431.9649-5.5208 1.0839-8.2345.3405s-5.1291-2.3123-6.9115-4.4895c-.1763-.2173-.2988-.4732-.3574-.7468-.0587-.2737-.0519-.5573.0199-.8278.0717-.2705.2064-.5202.3929-.7288.1866-.2086.4198-.3702.6807-.4716l7.2626-2.7872-3.6804-5.2531c-.4787-.683-.7808-1.4739-.8793-2.3021s.0097-1.668.315-2.4441c.3052-.7762.7979-1.4647 1.4342-2.004.6362-.5393 1.3961-.9126 2.2118-1.0866 4.1449-.8833 6.8087-1.7404 7.9913-2.5713 1.1826-.831 2.874-3.0073 5.074-6.529.4416-.7083 1.0517-1.2961 1.776-1.711.7242-.4148 1.5399-.6438 2.3743-.6664.8343-.0226 1.6612.1618 2.4069.5369.7456.375 1.3867.929 1.866 1.6123l3.646 5.2065 5.0249-5.7782c.1833-.2118.4141-.3772.6736-.4826s.5403-.1479.8194-.124.5485.1136.7863.2617c.2377.1481.437.3504.5816.5903 1.4263 2.4008 2.0765 5.1835 1.8617 7.9677-.2147 2.7843-1.284 5.4343-3.0615 7.588zm-12.9942 24.8327-3.8889-.5496c-.3243-.0452-.6543-.0259-.9712.0565s-.6144.2265-.8756.4239c-.5276.3987-.8751.9906-.9662 1.6456-.0911.6549.0817 1.3193.4804 1.8468.3987.5276.9906.8751 1.6456.9662l3.8914.5521c.646.0714 1.2943-.112 1.8072-.5112.5128-.3992.8497-.9828.9389-1.6266.0891-.6438-.0764-1.2969-.4614-1.8206-.385-.5236-.9591-.8763-1.6002-.9831zm20.4383-17.4205c-.6458-.1382-1.3201-.0143-1.8746.3446s-.9436.9234-1.0819 1.5692l-.8146 3.8448c-.1383.6468-.014 1.3221.3456 1.8772.3596.5552.925.9448 1.5718 1.083.6469.1383 1.3221.014 1.8773-.3456.5551-.3596.9447-.925 1.083-1.5718l.8146-3.8571c.0684-.3206.073-.6515.0134-.9739-.0595-.3223-.182-.6298-.3604-.9049-.1784-.275-.4092-.5122-.6793-.6979-.2702-.1858-.5742-.3165-.8949-.3847z" fill="#fff"/><path d="m78.8312 95.4737c0-3.1749 2.4536-5.4175 5.6948-5.4175s5.6947 2.2426 5.6947 5.4175-2.4535 5.4173-5.6947 5.4173-5.6948-2.2571-5.6948-5.4173zm8.1852 0c0-1.4869-.9471-2.5763-2.4536-2.5763s-2.4536 1.0894-2.4536 2.5763.9446 2.5762 2.4536 2.5762c1.5089 0 2.4536-1.055 2.4536-2.5762zm-10.3198-2.5051c.2107.4241.3143.8933.3018 1.3666 0 1.1508-.606 2.2082-1.5899 3.0204 1.347.6355 2.1493 2.1812 2.1493 3.6314 0 2.721-2.2352 4.541-5.6432 4.541s-5.6432-1.786-5.6432-4.541c-.0122-.745.1822-1.4785.5616-2.1195s.9289-1.1643 1.5877-1.5119c-1.0084-.8146-1.5924-1.8696-1.5924-3.0204 0-2.3849 1.8942-4.1465 4.9072-4.1465 1.7715 0 2.2941.2993 3.3123.2993.6911.0283 1.3748-.1511 1.9629-.5152.2035-.1307.438-.2052.6796-.216.4024 0 .6085.3951.6085.876.0232.5106-.1206 1.0148-.4097 1.4363-.2892.4215-.7078.7373-1.1925.8995zm-2.3088 7.9224c0-1.2119-.9471-2.0608-2.4536-2.0608s-2.4536.8146-2.4536 2.0608c0 1.151 1.0453 2.061 2.4536 2.061 1.4084 0 2.4536-.91 2.4536-2.061zm-4.4434-6.3791c.0252.5062.2441.9832.6113 1.3326.3671.3493.8545.5441 1.3613.5441s.9943-.1948 1.3614-.5441c.3672-.3494.5861-.8264.6113-1.3326 0-1.0894-.7998-1.8451-1.9628-1.8451s-1.9825.7213-1.9825 1.8475zm-5.1525 1.1752v3.7736c0 .7363-.2797 1.0303-1.0673 1.0303h-1.0698c-.7999 0-1.0673-.299-1.0673-1.0303v-3.6803c0-.9348-.1595-1.6071-.4907-2.0267-.1979-.2349-.4482-.4202-.7308-.5408-.2825-.1206-.5894-.1732-.896-.1535-.3148-.0129-.6286.0425-.92.1623-.2914.1199-.5534.3014-.768.532-.3656.4196-.6085 1.0919-.6085 2.0021v3.6804c0 .7528-.3386 1.0308-1.0673 1.0308h-1.0673c-.7361 0-1.0698-.278-1.0698-1.0308v-8.4697c0-.4785.2454-.6944.6061-.6944.5471 0 1.3249.4564 1.8941 1.3298.441-.4776.9765-.8584 1.5725-1.1182.5959-.2598 1.2394-.3928 1.8895-.3907 1.5654 0 2.8167.5398 3.6411 1.4501.8244.9102 1.2244 2.1444 1.2244 4.1465zm-16.7261-8.531c.0109-.4619.2031-.9009.535-1.2223.332-.3214.777-.4992 1.2389-.4953h.0589c.2383-.0067.4753.0363.696.1262.2208.0898.4204.2247.5862.3959s.2941.375.3768.5985c.0828.2235.1181.4618.1037.6997-.0143.2379-.078.4702-.187.6822-.1091.2119-.261.3988-.4462.5489-.1851.15-.3995.2598-.6295.3225-.2299.0627-.4704.0768-.7061.0415-.4391-.0147-.855-.2005-1.159-.5178-.3039-.3172-.4718-.7407-.4677-1.18zm.2184 12.3194v-7.957c0-.7361.2797-1.055 1.0697-1.055h1.0673c.8024 0 1.0698.2993 1.0698 1.055v7.957c0 .7365-.2797 1.0305-1.0698 1.0305h-1.0673c-.79-.012-1.0697-.312-1.0697-1.0305zm-5.6702 0v-9.9812c0-2.5051 1.4083-3.9257 2.6106-3.9257.3656 0 .6085.2453.6085.6968v13.2174c0 .7562-.3043 1.0302-1.0698 1.0302h-1.0673c-.741-.019-1.082-.282-1.082-1.0375zm-13.2322-4.0018c0-3.1749 2.4536-5.4175 5.6923-5.4175s5.6948 2.2426 5.6948 5.4175-2.4536 5.4173-5.6948 5.4173-5.6923-2.2571-5.6923-5.4173zm8.1459 0c0-1.4869-.9471-2.5763-2.4536-2.5763s-2.4536 1.0894-2.4536 2.5763.9471 2.5762 2.4536 2.5762 2.4659-1.055 2.4659-2.5762zm-9.8021-3.9552v8.4722c0 .4903-.2453.6973-.6084.6973-.5447 0-1.3225-.457-1.8697-1.3082-.4241.4802-.9479.8622-1.5348 1.1192-.5869.256-1.2229.382-1.8634.368-1.2191.036-2.4056-.397-3.3148-1.21-.947-.9127-1.4721-2.3014-1.4721-4.2913v-3.8472c0-.7361.2797-1.055 1.0673-1.055h1.0698c.7998 0 1.0673.2993 1.0673 1.055v3.5724c0 1.2096.2183 1.8451.6085 2.2647.1926.1843.4207.3274.6704.4206s.5158.1346.7821.1216c.2847.0042.5672-.0501.8301-.1594s.5006-.2713.6985-.4761c.3999-.4195.606-1.0918.606-2.1223v-3.6215c0-.7557.341-1.055 1.0697-1.055h1.0674c.79-.0123 1.1261.2993 1.1261 1.055zm-12.8665-5.2605v13.7401c0 .4909-.2454.6969-.6061.6969-.5471 0-1.3249-.456-1.8696-1.2711-.6796.7901-2.0512 1.4871-3.64354 1.4871-3.18965 0-5.32917-2.3016-5.32917-5.4177 0-3.116 2.20822-5.4175 5.32917-5.4175 1.04592-.0019 2.06954.3026 2.94434.8759v-1.45c0-2.5051 1.4451-3.9258 2.6106-3.9258.3459-.0147.5643.2258.5643.6821zm-3.1897 9.2157c0-1.5458-1.1041-2.5763-2.47808-2.5763-.33674-.0049-.67095.0588-.98222.1874-.31127.1285-.59308.3192-.82821.5603s-.41865.5276-.53935.842c-.12071.3144-.17606.6501-.16269.9866 0 1.5457 1.10411 2.5762 2.51247 2.5762 1.40838 0 2.47568-.9937 2.47568-2.5762zm-11.345315 23.2623c-.2452198-.788-.3547368-1.612-.32387208-2.436 0-1.154.10059708-1.841.30179008-2.454.547148-1.676 1.940777-2.606 3.778507-2.606 1.89907 0 3.27308.93 3.79814 2.586.23794.758.34741 1.55.32388 2.344.00407.087-.01056.175-.04292.257-.03237.082-.08173.156-.14483.217s-.13849.108-.22117.138c-.08269.03-.17078.042-.25846.035h-5.67512c-.01646-.002-.03324-.001-.04904.005-.01581.005-.03021.013-.04208.025-.01188.012-.0209.026-.02638.042-.00547.015-.00725.032-.00518.049-.01082.397.0439.793.16193 1.172.36313 1.112 1.25378 1.676 2.45358 1.676.84833.01 1.67239-.283 2.32354-.827.16046-.148.36814-.235.5864-.245.09344-.002.18639.014.27319.049.08679.035.16563.087.23173.153.06609.066.11805.145.15273.231.03468.087.05134.18.04898.274-.00049.113-.024.225-.06913.33-.04513.104-.11092.198-.1934.276-.94276.875-2.18764 1.353-3.47426 1.332-2.00948.002-3.36386-.925-3.908555-2.623zm6.018625-3.273c.01645.002.03324.001.04904-.004.01581-.005.03021-.014.04208-.026.01187-.011.0209-.026.02637-.041.00548-.016.00725-.033.00519-.049.01331-.37-.03478-.739-.14231-1.092-.32141-.969-1.1311-1.516-2.20822-1.516s-1.90643.547-2.23521 1.516c-.1063.354-.15436.723-.1423 1.092-.00207.016-.00029.033.00518.049.00548.015.0145.03.02638.041.01187.012.02627.021.04208.026.0158.005.03258.006.04904.004zm4.12689-3.19c-.0089-.117.0065-.234.0451-.345.0386-.11.0997-.212.1794-.298s.1763-.155.2838-.202c.1074-.046.2234-.071.3407-.071.1172 0 .2332.025.3407.071.1074.047.204.116.2837.202s.1408.188.1794.298c.0387.111.054.228.0451.345v.282h.0196c.4638-.748 1.3937-1.312 2.699-1.312 2.1027 0 3.354 1.435 3.354 3.636v5.454c.0062.116-.0111.231-.0509.339s-.1013.207-.1806.291-.1749.15-.2808.196c-.106.045-.2201.069-.3354.069s-.2294-.024-.3354-.069c-.1059-.046-.2015-.112-.2808-.196s-.1408-.183-.1806-.291-.0571-.223-.0509-.339v-5.052c0-1.555-.7091-2.465-2.1641-2.465-1.3126 0-2.2082.929-2.2082 2.365v5.152c.0089.117-.0064.235-.0451.345-.0386.111-.0997.213-.1794.299s-.1763.154-.2837.201c-.1075.047-.2235.071-.3407.071-.1173 0-.2333-.024-.3407-.071-.1075-.047-.2041-.115-.2838-.201s-.1407-.188-.1794-.299c-.0386-.11-.054-.228-.0451-.345zm16.2893.246v-.246c-.0089-.117.0065-.234.0451-.345.0387-.11.0997-.212.1794-.298s.1763-.155.2838-.202c.1074-.046.2234-.071.3407-.071.1172 0 .2332.025.3407.071.1074.047.204.116.2837.202s.1408.188.1794.298c.0387.111.054.228.0451.345v8.384c0 2.891-1.5359 4.346-4.2226 4.346-1.2734 0-2.4855-.528-3.0719-1.154-.1506-.142-.2388-.338-.2453-.544-.004-.103.0129-.205.0496-.301.0368-.096.0927-.184.1643-.257.0716-.074.1574-.132.2522-.172.0948-.039.1967-.059.2994-.058.2514.011.4925.103.687.263.5562.411 1.2294.633 1.9211.635 1.5556 0 2.4536-.768 2.4536-2.625v-1.05c-.4907.807-1.293 1.271-2.6989 1.271-1.6169 0-2.7677-.889-3.2535-2.403-.4318-1.628-.4318-3.342 0-4.97.4908-1.517 1.6366-2.405 3.2535-2.405 1.4329 0 2.2425.545 2.6989 1.273zm-.2208 5.434c.175-.589.2497-1.204.2208-1.818.0279-.607-.0468-1.215-.2208-1.798-.3435-1.011-1.0109-1.517-2.061-1.517s-1.7175.506-2.061 1.517c-.175.582-.2505 1.19-.2233 1.798-.0282.615.0473 1.229.2233 1.818.3435 1.011 1.0109 1.514 2.061 1.514s1.7175-.508 2.061-1.519zm7.0369 3.293c-1.7396 0-2.3653-.849-2.3653-2.586v-10.457c-.0089-.117.0065-.235.0451-.345.0386-.111.0997-.212.1794-.298s.1763-.155.2838-.202c.1074-.047.2234-.071.3407-.071.1172 0 .2332.024.3407.071.1074.047.204.116.2837.202s.1408.187.1794.298c.0386.11.054.228.0451.345v10.344c0 .807.2625 1.112.9299 1.112.1054-.008.2112.007.3103.044.099.037.1889.095.2637.169.0747.075.1324.165.1693.264s.052.205.0443.31c0 .464-.3042.788-.8686.788zm2.6646-12.83c0-.294.1171-.577.3255-.786.2084-.208.4912-.325.7859-.325.2948 0 .5775.117.786.325.2084.209.3255.492.3255.786 0 .295-.1171.578-.3255.786-.2085.209-.4912.326-.786.326-.2947 0-.5775-.117-.7859-.326-.2084-.208-.3255-.491-.3255-.786zm.265 3.86c-.0062-.115.0111-.231.0509-.339s.1012-.207.1805-.291c.0794-.083.1749-.15.2809-.196.1059-.045.22-.069.3354-.069.1153 0 .2294.024.3353.069.106.046.2015.113.2809.196.0793.084.1407.183.1805.291s.0572.224.051.339v8.06c.0062.115-.0112.23-.051.338-.0398.109-.1012.208-.1805.291-.0794.084-.1749.151-.2809.196-.1059.046-.22.069-.3353.069-.1154 0-.2295-.023-.3354-.069-.106-.045-.2015-.112-.2809-.196-.0793-.083-.1407-.182-.1805-.291-.0398-.108-.0571-.223-.0509-.338zm4.171 8.021c-.1211-.075-.2215-.179-.2919-.302-.0703-.124-.1083-.263-.1105-.405.0003-.103.0211-.204.061-.298.0399-.095.0983-.18.1716-.251.0733-.072.1602-.128.2555-.166.0953-.037.1971-.055.2995-.053.2016.006.3973.069.5644.182.7876.463 1.6169.848 2.6989.848 1.3936 0 2.1199-.606 2.1199-1.455 0-.807-.3631-1.212-1.8991-1.374l-1.0109-.1c-1.899-.204-2.8878-1.173-2.8878-2.729 0-1.837 1.3127-2.944 3.5749-2.944 1.0078-.014 2.0025.23 2.8903.707.1448.054.2701.15.3601.276s.1406.276.1453.43c0 .196-.0775.383-.2156.521-.138.138-.3252.216-.5205.216-.2114-.01-.4183-.065-.606-.162-.6676-.323-1.398-.496-2.1395-.506-1.2145 0-1.8402.545-1.8402 1.335s.4441 1.17 1.8991 1.313l1.0108.1c2.0193.221 2.91 1.173 2.91 2.748 0 1.899-1.374 3.151-3.9405 3.151-1.2473-.004-2.4647-.383-3.4939-1.087zm9.6009-12.094c-.0089-.117.0064-.235.0451-.345.0386-.111.0997-.212.1794-.298s.1763-.155.2837-.202c.1075-.047.2235-.071.3407-.071.1173 0 .2333.024.3407.071.1075.047.2041.116.2838.202s.1407.187.1794.298c.0386.11.054.228.0451.345v4.343h.0196c.4662-.749 1.3936-1.313 2.6989-1.313 2.1003 0 3.3541 1.435 3.3541 3.636v5.455c.0089.116-.0065.234-.0451.345-.0386.11-.0997.212-.1794.298s-.1763.154-.2838.201c-.1074.047-.2234.072-.3407.072-.1172 0-.2332-.025-.3407-.072-.1074-.047-.204-.115-.2837-.201s-.1408-.188-.1794-.298c-.0387-.111-.054-.229-.0451-.345v-5.043c0-1.555-.7066-2.465-2.1616-2.465-1.3127 0-2.223.929-2.223 2.365v5.152c.0089.117-.0064.235-.045.345-.0387.111-.0997.213-.1794.299s-.1763.154-.2838.201-.2234.071-.3407.071c-.1172 0-.2332-.024-.3407-.071-.1074-.047-.204-.115-.2837-.201s-.1408-.188-.1794-.299c-.0387-.11-.054-.228-.0451-.345zm16.7849 13.031c-1.98 0-2.6989-.83-2.6989-2.849v-5.427c.0024-.017.0009-.033-.0042-.049-.0052-.016-.0139-.03-.0255-.042-.0117-.012-.0259-.021-.0416-.027-.0157-.005-.0324-.007-.0489-.005h-.5472c-.0935.006-.1872-.008-.2752-.04-.0881-.032-.1687-.081-.2369-.145-.0682-.065-.1225-.142-.1596-.228-.0372-.086-.0563-.179-.0563-.273 0-.093.0191-.186.0563-.272.0371-.086.0914-.163.1596-.228.0682-.064.1488-.113.2369-.145.088-.032.1817-.046.2752-.04h.5472c.0165.002.0332 0 .0489-.006.0157-.005.0299-.014.0416-.026.0116-.012.0203-.026.0255-.042.0051-.016.0066-.033.0042-.049v-2.122c-.0089-.117.0064-.235.0451-.345.0386-.111.0997-.213.1794-.299s.1763-.154.2837-.201c.1075-.047.2235-.071.3407-.071.1173 0 .2332.024.3407.071s.2041.115.2838.201.1407.188.1794.299c.0386.11.054.228.0451.345v2.122c-.0024.016-.001.033.0042.049.0051.016.0138.03.0255.042.0116.012.0258.021.0415.026.0157.006.0325.008.049.006h1.2734c.0935-.006.1872.008.2752.04.0881.032.1687.081.2369.145.0682.065.1225.142.1596.228.0372.086.0563.179.0563.272 0 .094-.0191.187-.0563.273-.0371.086-.0914.163-.1596.228-.0682.064-.1488.113-.2369.145-.088.032-.1817.046-.2752.04h-1.2808c-.0165-.002-.0332 0-.0489.005-.0157.006-.0299.015-.0416.027-.0116.012-.0203.026-.0255.042s-.0066.032-.0042.049v5.373c0 1.031.2625 1.335 1.293 1.335.108-.011.2171.001.3198.036s.1966.092.2752.167.1401.166.1801.267.0577.209.0518.318c0 .463-.3018.787-.9078.787zm2.6671-2.505c-.246-.794-.3555-1.624-.3239-2.454-.0361-.829.0668-1.658.3042-2.453.5447-1.676 1.9384-2.606 3.7785-2.606 1.8991 0 3.2731.93 3.7982 2.586.2379.757.3474 1.549.3239 2.343.004.088-.0106.176-.043.257-.0323.082-.0817.156-.1448.217-.0631.062-.1385.109-.2212.139-.0826.03-.1708.042-.2584.035h-5.6776c-.0164-.003-.0331-.001-.0488.004s-.03.014-.0417.026c-.0117.011-.0205.026-.0257.041-.0051.016-.0065.033-.004.049-.012.397.0427.794.1619 1.173.3631 1.111 1.2513 1.676 2.4536 1.676.8482.009 1.6722-.284 2.3235-.827.1599-.149.3679-.236.5864-.246.0935-.002.1864.015.2732.049.0868.035.1657.087.2317.153.0661.066.1181.145.1528.232s.0513.18.049.273c-.0005.114-.0241.226-.0692.33s-.1109.198-.1934.276c-.9429.876-2.1877 1.353-3.4742 1.332-2.012.027-3.3639-.9-3.911-2.598zm6.021-3.273c.0164.002.0331.001.0488-.004.0158-.006.0301-.014.0418-.026s.0205-.026.0256-.042c.0052-.016.0066-.032.0041-.049.0127-.369-.0345-.737-.1399-1.091-.3239-.97-1.1311-1.517-2.2229-1.517-1.0919 0-1.8991.547-2.223 1.517-.1054.354-.1526.722-.1398 1.091-.0025.017-.0011.033.004.049.0052.016.014.03.0257.042s.026.02.0417.026c.0157.005.0324.006.0488.004zm3.9528 4.828c-.1215-.074-.2223-.178-.293-.301-.0708-.124-.1093-.263-.1119-.405.0006-.103.0216-.204.0616-.298.0401-.094.0984-.18.1717-.251s.16-.128.2552-.165c.0951-.038.1968-.056.2991-.054.2024.005.399.068.5668.181.7876.464 1.6144.849 2.6989.849 1.3937 0 2.1224-.606 2.1224-1.455 0-.807-.3656-1.212-1.8991-1.374l-1.0109-.1c-1.899-.204-2.8903-1.173-2.8903-2.729 0-1.838 1.3151-2.944 3.5773-2.944 1.0071-.014 2.0011.229 2.8879.707.1448.054.2702.15.3602.276s.1405.276.1452.43c0 .195-.0775.383-.2156.521-.138.138-.3252.215-.5204.215-.2115-.008-.4184-.064-.6061-.162-.6685-.323-1.3996-.495-2.142-.505-1.212 0-1.8377.545-1.8377 1.335s.4441 1.17 1.8991 1.312l1.0084.101c2.0218.221 2.9099 1.173 2.9099 2.748 0 1.899-1.374 3.15-3.9404 3.15-1.2469.001-2.4653-.373-3.4963-1.074zm12.8174.95c-1.98 0-2.6989-.83-2.6989-2.849v-5.427c.0025-.017.001-.034-.0043-.05-.0052-.016-.0142-.03-.0261-.042-.012-.012-.0265-.021-.0425-.027-.0161-.005-.0331-.006-.0498-.004h-.5447c-.0935.006-.1871-.008-.2752-.04s-.1687-.081-.2369-.145c-.0681-.065-.1225-.142-.1596-.228s-.0563-.179-.0563-.273c0-.093.0192-.186.0563-.272s.0915-.163.1596-.228c.0682-.064.1488-.113.2369-.145s.1817-.046.2752-.04h.5447c.0167.002.0337.001.0498-.005.016-.005.0305-.014.0425-.026.0119-.012.0209-.026.0261-.042.0053-.016.0068-.033.0043-.05v-2.122c-.0062-.116.0111-.231.0509-.339s.1013-.207.1806-.291.1749-.15.2808-.196c.106-.045.2201-.069.3354-.069s.2295.024.3354.069c.106.046.2015.112.2808.196.0794.084.1408.183.1806.291s.0571.223.0509.339v2.122c-.0025.017-.001.034.0043.05s.0142.03.0262.042c.0119.012.0265.021.0425.026.016.006.033.007.0497.005h1.2734c.0935-.006.1872.008.2753.04.088.032.1686.081.2368.145.0682.065.1225.142.1597.228.0371.086.0563.179.0563.272 0 .094-.0192.187-.0563.273-.0372.086-.0915.163-.1597.228-.0682.064-.1488.113-.2368.145-.0881.032-.1818.046-.2753.04h-1.2734c-.0167-.002-.0337-.001-.0497.004-.016.006-.0306.015-.0425.027-.012.012-.0209.026-.0262.042s-.0068.033-.0043.05v5.373c0 1.031.265 1.335 1.2931 1.335.108-.011.2172.001.3201.036.1028.035.1968.092.2756.167s.1405.166.1808.267.0583.209.0528.318c0 .463-.3018.787-.9078.787z" fill="#4b4b4b"/></g></svg>